<svg width="36" height="36" viewBox="0 0 36 36" fill="none" xmlns="http://www.w3.org/2000/svg">
<path d="M33.0378 10.9309L33.6552 9.91207C33.6552 9.91207 34.1988 9.01086 34.1988 7.80065C34.1988 4.86903 31.4016 4.94643 31.4016 4.94643L25.3074 3.28742L21.9828 0L17.6082 1.19101L16.1736 0.800406L15.0834 1.87861L8.7852 3.59342C8.7852 3.59342 6.3612 3.52682 6.3612 6.06724C6.3612 7.11605 6.8328 7.89725 6.8328 7.89725L7.6434 9.23526L6.9312 9.93847L3.4152 10.8961C3.4152 10.8961 0.618 10.8187 0.618 13.7503C0.623594 14.4333 0.783368 15.1063 1.0854 15.7189L0 16.7923L0.5694 17.0179C0.582 17.0485 0.5868 17.0827 0.6114 17.1073C1.7124 18.2107 1.6218 19.6927 1.4646 20.4931L0.7992 21.1597L5.8398 23.5832L12.7626 35.0102C13.872 36.7538 16.227 35.663 16.227 35.663L34.0164 27.1094L33.351 26.4428C33.1938 25.6424 33.1032 24.1604 34.2042 23.0564C34.2288 23.0318 34.2336 22.9976 34.2462 22.9676L34.8156 22.7414L31.5078 19.4713L35.3058 17.6455L34.7292 17.0677C34.593 16.3741 34.5144 15.0895 35.469 14.1331C35.49 14.1115 35.4936 14.0827 35.505 14.0557L36 13.8595L33.0378 10.9309ZM29.6268 5.62984L28.8768 6.81665L26.9364 4.89783L29.6268 5.62984ZM22.3056 3.08642L25.0914 6.06424L15.018 9.70447L12.639 6.01084L22.3056 3.08642ZM8.2464 10.2313L15.1206 21.5779L2.0244 16.3831L8.2464 10.2313ZM5.3814 11.4715L4.5744 12.2695L4.2516 11.7745L5.3814 11.4715ZM2.8332 12.0919L3.5844 13.2481L1.9566 14.8573C1.82868 14.5021 1.76153 14.1278 1.758 13.7503C1.758 12.6547 2.3016 12.2377 2.8332 12.0919ZM1.8924 21.0157L1.9014 20.9809L16.9896 27.5852L2.0196 20.4487C2.0334 20.3677 2.0442 20.2783 2.0556 20.1883L13.7754 25.0964L2.0964 19.6267C2.09868 19.3768 2.08142 19.127 2.0448 18.8797L12.8922 23.3468L1.899 18.2401C1.82862 18.0037 1.73413 17.7751 1.617 17.5579L16.5468 23.933L16.8864 24.4934C17.5866 25.5938 18.8568 25.3904 19.497 25.1996C20.382 25.6364 21.9684 26.6468 21.5622 28.1354C21.348 28.9226 20.877 29.3042 20.1228 29.3042C19.359 29.3042 18.5964 28.9046 18.5886 28.8992L1.8924 21.0157ZM16.92 28.9112L15.7404 29.3996L14.7384 27.8618L16.92 28.9112ZM12.3516 32.1398L7.7142 24.4844L12.3234 26.7002L14.5032 30.0554C13.6242 30.431 12.642 31.2884 12.3516 32.1398ZM32.7714 24.8294C32.7348 25.0766 32.7175 25.3264 32.7198 25.5764L21.0408 31.046L32.7606 26.138C32.772 26.2274 32.7822 26.3174 32.7966 26.3984L17.8266 33.5354L32.9148 26.9312L32.9238 26.966L16.2276 34.8482C16.2198 34.8536 15.4584 35.2532 14.6934 35.2532C13.9386 35.2532 13.4682 34.871 13.254 34.0844C12.7032 32.0642 15.8352 30.9188 15.882 30.9014L18.627 29.7302C18.9216 29.8556 21.0234 30.6806 22.0536 29.0612L22.7034 27.9896L33.1998 23.5076C33.0825 23.7247 32.9878 23.9533 32.9172 24.1898L21.924 29.2964L32.7714 24.8294ZM32.7918 22.3328L23.8968 26.0192L26.3652 21.9445L30.4254 19.9927L32.7918 22.3328ZM34.2276 15.6685C34.1959 15.8828 34.1809 16.0993 34.1826 16.3159L24.0618 21.0559L34.2186 16.8025C34.2288 16.8799 34.2372 16.9585 34.2498 17.0281L21.2754 23.213L34.3518 17.4895L34.3596 17.5195L19.8894 24.3518C19.8828 24.356 19.2222 24.7028 18.5598 24.7028C17.9052 24.7028 17.4978 24.371 17.3124 23.6894C16.8348 21.9385 19.5492 20.9461 19.59 20.9311L34.5984 14.5231C34.4973 14.7116 34.4155 14.9098 34.3542 15.1147L24.8262 19.5403L34.2276 15.6685Z" fill="#07C983"/>
</svg>
