<svg width="275" height="39" viewBox="0 0 275 39" fill="none" xmlns="http://www.w3.org/2000/svg">
<path d="M33.0378 10.9309L33.6552 9.91207C33.6552 9.91207 34.1988 9.01086 34.1988 7.80065C34.1988 4.86903 31.4016 4.94643 31.4016 4.94643L25.3074 3.28742L21.9828 0L17.6082 1.19101L16.1736 0.800406L15.0834 1.87861L8.7852 3.59342C8.7852 3.59342 6.3612 3.52682 6.3612 6.06724C6.3612 7.11605 6.8328 7.89725 6.8328 7.89725L7.6434 9.23526L6.9312 9.93847L3.4152 10.8961C3.4152 10.8961 0.618 10.8187 0.618 13.7503C0.623594 14.4333 0.783368 15.1063 1.0854 15.7189L0 16.7923L0.5694 17.0179C0.582 17.0485 0.5868 17.0827 0.6114 17.1073C1.7124 18.2107 1.6218 19.6927 1.4646 20.4931L0.7992 21.1597L5.8398 23.5832L12.7626 35.0102C13.872 36.7538 16.227 35.663 16.227 35.663L34.0164 27.1094L33.351 26.4428C33.1938 25.6424 33.1032 24.1604 34.2042 23.0564C34.2288 23.0318 34.2336 22.9976 34.2462 22.9676L34.8156 22.7414L31.5078 19.4713L35.3058 17.6455L34.7292 17.0677C34.593 16.3741 34.5144 15.0895 35.469 14.1331C35.49 14.1115 35.4936 14.0827 35.505 14.0557L36 13.8595L33.0378 10.9309ZM29.6268 5.62984L28.8768 6.81665L26.9364 4.89783L29.6268 5.62984ZM22.3056 3.08642L25.0914 6.06424L15.018 9.70447L12.639 6.01084L22.3056 3.08642ZM8.2464 10.2313L15.1206 21.5779L2.0244 16.3831L8.2464 10.2313ZM5.3814 11.4715L4.5744 12.2695L4.2516 11.7745L5.3814 11.4715ZM2.8332 12.0919L3.5844 13.2481L1.9566 14.8573C1.82868 14.5021 1.76153 14.1278 1.758 13.7503C1.758 12.6547 2.3016 12.2377 2.8332 12.0919ZM1.8924 21.0157L1.9014 20.9809L16.9896 27.5852L2.0196 20.4487C2.0334 20.3677 2.0442 20.2783 2.0556 20.1883L13.7754 25.0964L2.0964 19.6267C2.09868 19.3768 2.08142 19.127 2.0448 18.8797L12.8922 23.3468L1.899 18.2401C1.82862 18.0037 1.73413 17.7751 1.617 17.5579L16.5468 23.933L16.8864 24.4934C17.5866 25.5938 18.8568 25.3904 19.497 25.1996C20.382 25.6364 21.9684 26.6468 21.5622 28.1354C21.348 28.9226 20.877 29.3042 20.1228 29.3042C19.359 29.3042 18.5964 28.9046 18.5886 28.8992L1.8924 21.0157ZM16.92 28.9112L15.7404 29.3996L14.7384 27.8618L16.92 28.9112ZM12.3516 32.1398L7.7142 24.4844L12.3234 26.7002L14.5032 30.0554C13.6242 30.431 12.642 31.2884 12.3516 32.1398ZM32.7714 24.8294C32.7348 25.0766 32.7175 25.3264 32.7198 25.5764L21.0408 31.046L32.7606 26.138C32.772 26.2274 32.7822 26.3174 32.7966 26.3984L17.8266 33.5354L32.9148 26.9312L32.9238 26.966L16.2276 34.8482C16.2198 34.8536 15.4584 35.2532 14.6934 35.2532C13.9386 35.2532 13.4682 34.871 13.254 34.0844C12.7032 32.0642 15.8352 30.9188 15.882 30.9014L18.627 29.7302C18.9216 29.8556 21.0234 30.6806 22.0536 29.0612L22.7034 27.9896L33.1998 23.5076C33.0825 23.7247 32.9878 23.9533 32.9172 24.1898L21.924 29.2964L32.7714 24.8294ZM32.7918 22.3328L23.8968 26.0192L26.3652 21.9445L30.4254 19.9927L32.7918 22.3328ZM34.2276 15.6685C34.1959 15.8828 34.1809 16.0993 34.1826 16.3159L24.0618 21.0559L34.2186 16.8025C34.2288 16.8799 34.2372 16.9585 34.2498 17.0281L21.2754 23.213L34.3518 17.4895L34.3596 17.5195L19.8894 24.3518C19.8828 24.356 19.2222 24.7028 18.5598 24.7028C17.9052 24.7028 17.4978 24.371 17.3124 23.6894C16.8348 21.9385 19.5492 20.9461 19.59 20.9311L34.5984 14.5231C34.4973 14.7116 34.4155 14.9098 34.3542 15.1147L24.8262 19.5403L34.2276 15.6685Z" fill="#07C983"/>
<path d="M51.556 33L50.746 29.634H45.634L44.95 33H39.658L45.148 13.362L44.716 11.904H52.15L58.162 33H51.556ZM47.956 18.096L46.372 25.962H49.864L47.956 18.096ZM64.884 33H59.07V21.354L57.99 20.688V18.762L61.86 17.7H64.92V20.022C64.98 19.938 65.064 19.83 65.172 19.698C65.292 19.554 65.508 19.332 65.82 19.032C66.132 18.732 66.45 18.468 66.774 18.24C67.11 18.012 67.512 17.808 67.98 17.628C68.46 17.436 68.934 17.34 69.402 17.34C70.602 17.34 71.52 17.568 72.156 18.024C72.792 18.48 73.242 19.224 73.506 20.256C73.914 19.548 74.538 18.888 75.378 18.276C76.23 17.652 77.166 17.34 78.186 17.34C79.314 17.34 80.19 17.538 80.814 17.934C81.45 18.318 81.912 18.978 82.2 19.914C82.488 20.85 82.632 22.17 82.632 23.874V33H76.782V23.352C76.782 22.824 76.656 22.41 76.404 22.11C76.152 21.81 75.768 21.66 75.252 21.66C74.904 21.66 74.43 21.948 73.83 22.524C73.866 23.1 73.884 23.724 73.884 24.396V33H67.944V23.352C67.98 22.224 67.5 21.66 66.504 21.66C66.432 21.66 66.36 21.666 66.288 21.678C66.228 21.69 66.168 21.702 66.108 21.714C66.06 21.726 66 21.75 65.928 21.786C65.868 21.81 65.814 21.834 65.766 21.858C65.718 21.87 65.664 21.9 65.604 21.948C65.544 21.984 65.496 22.014 65.46 22.038C65.424 22.062 65.37 22.104 65.298 22.164C65.238 22.212 65.19 22.248 65.154 22.272C65.13 22.296 65.082 22.338 65.01 22.398C64.95 22.446 64.908 22.482 64.884 22.506V33ZM92.9919 23.694C92.9919 22.17 92.9139 21.09 92.7579 20.454C92.6019 19.818 92.3139 19.5 91.8939 19.5C91.5339 19.5 91.2399 19.566 91.0119 19.698C90.7839 19.818 90.6159 20.016 90.5079 20.292C90.3999 20.556 90.3279 20.832 90.2919 21.12C90.2679 21.396 90.2559 21.75 90.2559 22.182V23.694H92.9919ZM91.5519 33.378C90.2079 33.378 89.0379 33.174 88.0419 32.766C87.0579 32.358 86.2779 31.788 85.7019 31.056C85.1379 30.324 84.7239 29.502 84.4599 28.59C84.1959 27.666 84.0639 26.64 84.0639 25.512C84.0639 22.824 84.7479 20.79 86.1159 19.41C87.4839 18.03 89.3979 17.34 91.8579 17.34C94.2219 17.34 95.9139 17.898 96.9339 19.014C97.9539 20.118 98.4639 21.9 98.4639 24.36V26.358H90.2379V26.7C90.2379 27.408 90.3099 27.99 90.4539 28.446C90.6099 28.902 90.8319 29.238 91.1199 29.454C91.4079 29.67 91.7019 29.814 92.0019 29.886C92.3019 29.958 92.6679 29.994 93.0999 29.994C93.5199 29.994 93.9699 29.94 94.4499 29.832C94.9419 29.724 95.4339 29.556 95.9259 29.328C96.4299 29.1 96.8499 28.83 97.1859 28.518L98.2479 30.336C97.8039 31.056 97.1499 31.662 96.2859 32.154C95.4339 32.634 94.6119 32.958 93.8199 33.126C93.0279 33.294 92.2719 33.378 91.5519 33.378ZM106.228 33H100.414V21.354L99.3338 20.688V18.654L103.204 17.7H104.662L105.184 21.984C105.676 19.044 107.254 17.574 109.918 17.574C110.218 17.574 110.53 17.628 110.854 17.736L110.242 24.144C109.99 23.916 109.438 23.802 108.586 23.802C107.362 23.802 106.576 24.126 106.228 24.774V33ZM112.279 33V21.354L111.199 20.688V18.762L115.069 17.7H118.075V33H112.279ZM114.889 16.044L111.937 13.074V12.444L114.889 9.492H115.573L118.651 12.444V13.074L115.573 16.044H114.889ZM132.6 31.506L132.438 31.704C132.33 31.824 132.138 31.98 131.862 32.172C131.598 32.352 131.274 32.538 130.89 32.73C130.518 32.91 130.014 33.06 129.378 33.18C128.754 33.312 128.082 33.378 127.362 33.378C124.926 33.378 123.06 32.664 121.764 31.236C120.48 29.808 119.838 27.918 119.838 25.566C119.838 24.294 120.036 23.136 120.432 22.092C120.828 21.048 121.368 20.184 122.052 19.5C122.748 18.804 123.558 18.27 124.482 17.898C125.418 17.514 126.426 17.322 127.506 17.322C129.594 17.322 131.214 17.82 132.366 18.816C132.618 19.068 132.744 19.194 132.744 19.194L132.474 23.424L129.918 23.442L128.892 20.688C128.796 20.664 128.664 20.652 128.496 20.652C127.404 20.652 126.648 21.03 126.228 21.786C125.82 22.53 125.616 23.826 125.616 25.674C125.616 26.478 125.682 27.168 125.814 27.744C125.946 28.308 126.096 28.734 126.264 29.022C126.432 29.298 126.654 29.514 126.93 29.67C127.218 29.826 127.452 29.916 127.632 29.94C127.812 29.964 128.034 29.976 128.298 29.976C128.898 29.976 129.51 29.904 130.134 29.76C130.77 29.616 131.292 29.382 131.7 29.058L132.6 31.506ZM134.533 33V21.354L133.453 20.688V18.762L137.323 17.7H140.329V33H134.533ZM137.143 16.044L134.191 13.074V12.444L137.143 9.492H137.827L140.905 12.444V13.074L137.827 16.044H137.143ZM150.048 31.218C150.576 31.218 150.978 31.002 151.254 30.57C151.542 30.126 151.686 29.52 151.686 28.752V23.064C151.686 20.724 151.134 19.554 150.03 19.554C149.514 19.554 149.112 19.764 148.824 20.184C148.536 20.604 148.392 21.198 148.392 21.966V27.816C148.392 30.084 148.944 31.218 150.048 31.218ZM149.904 33.378C147.156 33.378 145.146 32.754 143.874 31.506C142.602 30.258 141.966 28.266 141.966 25.53C141.966 22.818 142.608 20.778 143.892 19.41C145.176 18.03 147.264 17.34 150.156 17.34C152.976 17.34 155.01 18 156.258 19.32C157.518 20.628 158.148 22.614 158.148 25.278C158.148 28.038 157.482 30.078 156.15 31.398C154.83 32.718 152.748 33.378 149.904 33.378ZM160.325 21.228L161.405 8.916H166.139L163.457 21.228H160.325ZM173.544 33.378C172.416 33.378 171.276 33.192 170.124 32.82C168.972 32.436 168.234 32.064 167.91 31.704L168.378 28.806C168.786 29.202 169.464 29.544 170.412 29.832C171.372 30.12 172.35 30.264 173.346 30.264C174.066 30.264 174.558 30.174 174.822 29.994C175.098 29.814 175.236 29.562 175.236 29.238C175.236 28.926 174.996 28.65 174.516 28.41C174.036 28.158 173.256 27.87 172.176 27.546C169.38 26.706 167.982 24.966 167.982 22.326C167.982 21.246 168.294 20.322 168.918 19.554C169.542 18.774 170.34 18.21 171.312 17.862C172.284 17.514 173.37 17.34 174.57 17.34C176.622 17.34 178.134 17.718 179.106 18.474C179.322 18.678 179.43 18.78 179.43 18.78L178.638 21.354C177.846 20.574 176.754 20.184 175.362 20.184C174.222 20.184 173.652 20.52 173.652 21.192C173.652 21.384 173.694 21.546 173.778 21.678C173.862 21.798 174 21.906 174.192 22.002C174.396 22.086 174.594 22.158 174.786 22.218C174.978 22.266 175.248 22.338 175.596 22.434C175.944 22.518 176.244 22.596 176.496 22.668C177.9 23.136 178.92 23.796 179.556 24.648C180.192 25.5 180.51 26.562 180.51 27.834C180.51 31.53 178.188 33.378 173.544 33.378Z" fill="white"/>
<path d="M192.461 33.36C191.448 33.36 190.555 33.16 189.781 32.76C189.008 32.3333 188.408 31.6133 187.981 30.6C187.581 29.5867 187.381 28.2133 187.381 26.48V26H188.021V26.48C188.021 28.08 188.208 29.3333 188.581 30.24C188.981 31.1467 189.515 31.7867 190.181 32.16C190.848 32.5333 191.608 32.72 192.461 32.72C193.875 32.72 195.048 32.32 195.981 31.52C196.915 30.6933 197.381 29.24 197.381 27.16C197.381 25.7733 197.141 24.72 196.661 24C196.208 23.2533 195.581 22.68 194.781 22.28C194.008 21.88 193.155 21.5067 192.221 21.16C191.261 20.7867 190.421 20.3733 189.701 19.92C189.008 19.44 188.461 18.8267 188.061 18.08C187.688 17.3333 187.501 16.3333 187.501 15.08C187.501 13.2933 187.888 11.8667 188.661 10.8C189.461 9.73333 190.781 9.2 192.621 9.2C194.221 9.2 195.488 9.64 196.421 10.52C197.355 11.4 197.821 12.64 197.821 14.24V15.84H197.181V14.4C197.181 12.96 196.781 11.84 195.981 11.04C195.181 10.24 194.061 9.84 192.621 9.84C190.968 9.84 189.808 10.3467 189.141 11.36C188.475 12.3467 188.141 13.5867 188.141 15.08C188.141 16.3067 188.341 17.2667 188.741 17.96C189.168 18.6533 189.715 19.1867 190.381 19.56C191.075 19.9333 191.808 20.28 192.581 20.6C193.861 21.1067 194.901 21.6 195.701 22.08C196.501 22.56 197.088 23.1867 197.461 23.96C197.835 24.7067 198.021 25.7733 198.021 27.16C198.021 28.68 197.768 29.8933 197.261 30.8C196.781 31.7067 196.115 32.36 195.261 32.76C194.435 33.16 193.501 33.36 192.461 33.36ZM206.769 33.28C205.623 33.28 204.716 33.1333 204.049 32.84C203.409 32.52 202.943 32.1067 202.649 31.6C202.356 31.0933 202.169 30.5333 202.089 29.92C202.009 29.28 201.969 28.6533 201.969 28.04V18.12C201.969 17.5067 202.009 16.8933 202.089 16.28C202.169 15.6667 202.356 15.1067 202.649 14.6C202.943 14.0667 203.409 13.6533 204.049 13.36C204.716 13.04 205.623 12.88 206.769 12.88C207.889 12.88 208.769 13.04 209.409 13.36C210.076 13.6533 210.556 14.0667 210.849 14.6C211.143 15.1067 211.329 15.6667 211.409 16.28C211.489 16.8933 211.529 17.5067 211.529 18.12V19.88H210.889V18.24C210.889 17.52 210.809 16.8 210.649 16.08C210.516 15.36 210.156 14.76 209.569 14.28C209.009 13.7733 208.076 13.52 206.769 13.52C205.463 13.52 204.516 13.7733 203.929 14.28C203.343 14.76 202.969 15.36 202.809 16.08C202.676 16.8 202.609 17.52 202.609 18.24V27.92C202.609 28.6133 202.676 29.3333 202.809 30.08C202.969 30.8 203.343 31.4133 203.929 31.92C204.516 32.4 205.463 32.64 206.769 32.64C208.076 32.64 209.009 32.4 209.569 31.92C210.156 31.4133 210.516 30.8 210.649 30.08C210.809 29.3333 210.889 28.6133 210.889 27.92V26.32H211.529V28.04C211.529 28.8667 211.449 29.68 211.289 30.48C211.129 31.28 210.716 31.9467 210.049 32.48C209.383 33.0133 208.289 33.28 206.769 33.28ZM216.118 33V13.2H216.678L216.758 15.2C217.052 14.5867 217.532 14.0533 218.198 13.6C218.892 13.12 219.865 12.88 221.118 12.88C221.678 12.88 222.172 12.92 222.598 13V13.64C222.172 13.56 221.678 13.52 221.118 13.52C219.652 13.52 218.558 13.9067 217.838 14.68C217.118 15.4533 216.758 16.3733 216.758 17.44V33H216.118ZM228.939 33.16C228.326 33.16 227.686 33.0533 227.019 32.84C226.379 32.6267 225.832 32.2 225.379 31.56C224.926 30.8933 224.699 29.88 224.699 28.52V27.16C224.699 26.3067 224.886 25.56 225.259 24.92C225.659 24.28 226.126 23.7467 226.659 23.32C227.219 22.8667 227.752 22.5067 228.259 22.24C228.792 21.9467 229.179 21.7333 229.419 21.6C230.486 21.0133 231.312 20.5067 231.899 20.08C232.512 19.6267 232.952 19.1733 233.219 18.72C233.486 18.24 233.619 17.6667 233.619 17V16.44C233.619 15.5333 233.419 14.88 233.019 14.48C232.646 14.08 232.166 13.8267 231.579 13.72C230.992 13.6133 230.392 13.56 229.779 13.56C228.606 13.56 227.726 13.76 227.139 14.16C226.579 14.56 226.206 15.0933 226.019 15.76C225.859 16.4267 225.779 17.1733 225.779 18V19.64H225.139V17.92C225.139 16.3733 225.446 15.16 226.059 14.28C226.672 13.3733 227.912 12.92 229.779 12.92C231.219 12.92 232.246 13.1067 232.859 13.48C233.499 13.8533 233.886 14.3467 234.019 14.96C234.179 15.5467 234.259 16.2 234.259 16.92V33H233.659V30.08C233.339 31.0133 232.766 31.76 231.939 32.32C231.139 32.88 230.139 33.16 228.939 33.16ZM229.059 32.52C230.232 32.52 231.139 32.2667 231.779 31.76C232.446 31.2533 232.912 30.56 233.179 29.68C233.472 28.8 233.619 27.8133 233.619 26.72V19.36C233.192 19.9467 232.606 20.4667 231.859 20.92C231.139 21.3467 230.392 21.7867 229.619 22.24C228.952 22.6133 228.286 23.0133 227.619 23.44C226.979 23.84 226.432 24.36 225.979 25C225.552 25.64 225.339 26.4667 225.339 27.48V28.52C225.339 29.7733 225.539 30.68 225.939 31.24C226.339 31.8 226.832 32.16 227.419 32.32C228.006 32.4533 228.552 32.52 229.059 32.52ZM239.4 37.64V13.2H239.96L240.04 15.2C240.173 14.6667 240.546 14.1467 241.16 13.64C241.8 13.1333 242.813 12.88 244.2 12.88C245.32 12.88 246.2 13.04 246.84 13.36C247.506 13.6533 247.986 14.0667 248.28 14.6C248.573 15.1067 248.76 15.6667 248.84 16.28C248.92 16.8933 248.96 17.5067 248.96 18.12V28.04C248.96 28.8667 248.88 29.68 248.72 30.48C248.56 31.28 248.146 31.9467 247.48 32.48C246.813 33.0133 245.72 33.28 244.2 33.28C242.866 33.28 241.88 33.0933 241.24 32.72C240.6 32.32 240.2 31.9067 240.04 31.48V37.64H239.4ZM244.2 32.64C245.24 32.64 246.04 32.4933 246.6 32.2C247.16 31.9067 247.56 31.5333 247.8 31.08C248.04 30.6 248.186 30.0933 248.24 29.56C248.293 29 248.32 28.4533 248.32 27.92V18.24C248.32 17.44 248.253 16.68 248.12 15.96C248.013 15.24 247.68 14.6533 247.12 14.2C246.56 13.7467 245.586 13.52 244.2 13.52C242.92 13.52 241.986 13.76 241.4 14.24C240.813 14.6933 240.44 15.2933 240.28 16.04C240.12 16.7867 240.04 17.6 240.04 18.48V27.92C240.04 28.4533 240.066 29 240.12 29.56C240.173 30.0933 240.32 30.6 240.56 31.08C240.8 31.5333 241.2 31.9067 241.76 32.2C242.346 32.4933 243.16 32.64 244.2 32.64ZM257.728 33.24C256.341 33.24 255.208 32.9067 254.328 32.24C253.448 31.5733 253.008 30.5067 253.008 29.04V26.36H253.648V29.04C253.648 30.2133 254.021 31.1067 254.768 31.72C255.541 32.3067 256.528 32.6 257.728 32.6C258.981 32.6 259.981 32.3333 260.728 31.8C261.501 31.2667 261.888 30.3867 261.888 29.16V27.64C261.888 26.6267 261.675 25.84 261.248 25.28C260.821 24.6933 260.275 24.2267 259.608 23.88C258.968 23.5067 258.275 23.16 257.528 22.84C256.701 22.4667 255.941 22.0933 255.248 21.72C254.555 21.3467 253.995 20.8933 253.568 20.36C253.168 19.8 252.968 19.08 252.968 18.2V16.84C252.968 15.72 253.395 14.7867 254.248 14.04C255.101 13.2933 256.288 12.92 257.808 12.92C259.195 12.92 260.328 13.24 261.208 13.88C262.115 14.4933 262.568 15.52 262.568 16.96V19.56H261.928V17.2C261.928 15.92 261.568 15 260.848 14.44C260.155 13.8533 259.141 13.56 257.808 13.56C256.475 13.56 255.435 13.8933 254.688 14.56C253.968 15.2267 253.608 16.1067 253.608 17.2V17.92C253.608 18.8 253.835 19.5067 254.288 20.04C254.741 20.5733 255.288 21.0133 255.928 21.36C256.568 21.68 257.168 21.9733 257.728 22.24C258.528 22.5867 259.288 22.9733 260.008 23.4C260.755 23.8 261.355 24.3333 261.808 25C262.288 25.64 262.528 26.52 262.528 27.64V29.16C262.528 30.2 262.301 31.0133 261.848 31.6C261.395 32.1867 260.808 32.6133 260.088 32.88C259.368 33.12 258.581 33.24 257.728 33.24Z" fill="#F0F0F0"/>
</svg>
