<svg width="159" height="27" viewBox="0 0 159 27" fill="none" xmlns="http://www.w3.org/2000/svg">
<path d="M22.0252 7.78725L22.4368 7.10805C22.4368 7.10805 22.7992 6.50724 22.7992 5.70044C22.7992 3.74602 20.9344 3.79762 20.9344 3.79762L16.8716 2.69161L14.6552 0.5L11.7388 1.29401L10.7824 1.0336L10.0556 1.75241L5.8568 2.89562C5.8568 2.89562 4.2408 2.85122 4.2408 4.54483C4.2408 5.24403 4.5552 5.76484 4.5552 5.76484L5.0956 6.65684L4.6208 7.12564L2.2768 7.76405C2.2768 7.76405 0.412 7.71245 0.412 9.66686C0.415729 10.1222 0.522246 10.5708 0.7236 10.9793L0 11.6949L0.3796 11.8453C0.388 11.8657 0.3912 11.8885 0.4076 11.9049C1.1416 12.6405 1.0812 13.6285 0.9764 14.1621L0.5328 14.6065L3.8932 16.2221L8.5084 23.8402C9.248 25.0026 10.818 24.2754 10.818 24.2754L22.6776 18.5729L22.234 18.1285C22.1292 17.5949 22.0688 16.6069 22.8028 15.8709C22.8192 15.8545 22.8224 15.8317 22.8308 15.8117L23.2104 15.6609L21.0052 13.4809L23.5372 12.2637L23.1528 11.8785C23.062 11.4161 23.0096 10.5597 23.646 9.92206C23.66 9.90766 23.6624 9.88846 23.67 9.87046L24 9.73966L22.0252 7.78725ZM19.7512 4.25323L19.2512 5.04443L17.9576 3.76522L19.7512 4.25323ZM14.8704 2.55761L16.7276 4.54283L10.012 6.96964L8.426 4.50723L14.8704 2.55761ZM5.4976 7.32085L10.0804 14.8853L1.3496 11.4221L5.4976 7.32085ZM3.5876 8.14765L3.0496 8.67966L2.8344 8.34965L3.5876 8.14765ZM1.8888 8.56125L2.3896 9.33206L1.3044 10.4049C1.21912 10.1681 1.17436 9.91856 1.172 9.66686C1.172 8.93646 1.5344 8.65846 1.8888 8.56125ZM1.2616 14.5105L1.2676 14.4873L11.3264 18.8901L1.3464 14.1325C1.3556 14.0785 1.3628 14.0189 1.3704 13.9589L9.1836 17.2309L1.3976 13.5845C1.39912 13.4178 1.38762 13.2513 1.3632 13.0865L8.5948 16.0645L1.266 12.6601C1.21908 12.5024 1.15609 12.35 1.078 12.2053L11.0312 16.4553L11.2576 16.8289C11.7244 17.5625 12.5712 17.4269 12.998 17.2997C13.588 17.5909 14.6456 18.2645 14.3748 19.2569C14.232 19.7817 13.918 20.0361 13.4152 20.0361C12.906 20.0361 12.3976 19.7697 12.3924 19.7661L1.2616 14.5105ZM11.28 19.7741L10.4936 20.0997L9.8256 19.0745L11.28 19.7741ZM8.2344 21.9265L5.1428 16.8229L8.2156 18.3001L9.6688 20.5369C9.0828 20.7873 8.428 21.3589 8.2344 21.9265ZM21.8476 17.0529C21.8232 17.2178 21.8117 17.3843 21.8132 17.5509L14.0272 21.1973L21.8404 17.9253C21.848 17.9849 21.8548 18.0449 21.8644 18.0989L11.8844 22.857L21.9432 18.4541L21.9492 18.4773L10.8184 23.7322C10.8132 23.7358 10.3056 24.0022 9.7956 24.0022C9.2924 24.0022 8.9788 23.7474 8.836 23.223C8.4688 21.8761 10.5568 21.1125 10.588 21.1009L12.418 20.3201C12.6144 20.4037 14.0156 20.9537 14.7024 19.8741L15.1356 19.1597L22.1332 16.1717C22.055 16.3164 21.9918 16.4689 21.9448 16.6265L14.616 20.0309L21.8476 17.0529ZM21.8612 15.3885L15.9312 17.8461L17.5768 15.1297L20.2836 13.8285L21.8612 15.3885ZM22.8184 10.9457C22.7973 11.0885 22.7873 11.2328 22.7884 11.3773L16.0412 14.5373L22.8124 11.7017C22.8192 11.7533 22.8248 11.8057 22.8332 11.8521L14.1836 15.9753L22.9012 12.1597L22.9064 12.1797L13.2596 16.7345C13.2552 16.7373 12.8148 16.9685 12.3732 16.9685C11.9368 16.9685 11.6652 16.7473 11.5416 16.2929C11.2232 15.1257 13.0328 14.4641 13.06 14.4541L23.0656 10.1821C22.9982 10.3077 22.9437 10.4399 22.9028 10.5765L16.5508 13.5269L22.8184 10.9457Z" fill="#07C983"/>
<path d="M35.848 19L35.368 17.0053H32.3387L31.9333 19H28.7973L32.0507 7.36267L31.7947 6.49867H36.2L39.7627 19H35.848ZM33.7147 10.168L32.776 14.8293H34.8453L33.7147 10.168ZM43.7461 19H40.3008V12.0987L39.6608 11.704V10.5627L41.9541 9.93333H43.7674V11.3093C43.803 11.2596 43.8527 11.1956 43.9167 11.1173C43.9879 11.032 44.1159 10.9004 44.3007 10.7227C44.4856 10.5449 44.6741 10.3884 44.8661 10.2533C45.0652 10.1182 45.3034 9.99733 45.5807 9.89067C45.8652 9.77689 46.1461 9.72 46.4234 9.72C47.1345 9.72 47.6785 9.85511 48.0554 10.1253C48.4323 10.3956 48.699 10.8364 48.8554 11.448C49.0972 11.0284 49.467 10.6373 49.9648 10.2747C50.4696 9.90489 51.0243 9.72 51.6287 9.72C52.2972 9.72 52.8163 9.83733 53.1861 10.072C53.563 10.2996 53.8367 10.6907 54.0074 11.2453C54.1781 11.8 54.2634 12.5822 54.2634 13.592V19H50.7968V13.2827C50.7968 12.9698 50.7221 12.7244 50.5728 12.5467C50.4234 12.3689 50.1959 12.28 49.8901 12.28C49.6839 12.28 49.403 12.4507 49.0474 12.792C49.0687 13.1333 49.0794 13.5031 49.0794 13.9013V19H45.5594V13.2827C45.5808 12.6142 45.2963 12.28 44.7061 12.28C44.6634 12.28 44.6207 12.2836 44.5781 12.2907C44.5425 12.2978 44.507 12.3049 44.4714 12.312C44.443 12.3191 44.4074 12.3333 44.3647 12.3547C44.3292 12.3689 44.2972 12.3831 44.2687 12.3973C44.2403 12.4044 44.2083 12.4222 44.1727 12.4507C44.1372 12.472 44.1088 12.4898 44.0874 12.504C44.0661 12.5182 44.0341 12.5431 43.9914 12.5787C43.9559 12.6071 43.9274 12.6284 43.9061 12.6427C43.8919 12.6569 43.8634 12.6818 43.8207 12.7173C43.7852 12.7458 43.7603 12.7671 43.7461 12.7813V19ZM60.4026 13.4853C60.4026 12.5822 60.3564 11.9422 60.2639 11.5653C60.1715 11.1884 60.0008 11 59.7519 11C59.5386 11 59.3644 11.0391 59.2292 11.1173C59.0941 11.1884 58.9946 11.3058 58.9306 11.4693C58.8666 11.6258 58.8239 11.7893 58.8026 11.96C58.7884 12.1236 58.7812 12.3333 58.7812 12.5893V13.4853H60.4026ZM59.5493 19.224C58.7528 19.224 58.0595 19.1031 57.4692 18.8613C56.8861 18.6196 56.4239 18.2818 56.0826 17.848C55.7484 17.4142 55.503 16.9271 55.3466 16.3867C55.1901 15.8391 55.1119 15.2311 55.1119 14.5627C55.1119 12.9698 55.5172 11.7644 56.3279 10.9467C57.1386 10.1289 58.2728 9.72 59.7306 9.72C61.1315 9.72 62.1341 10.0507 62.7386 10.712C63.343 11.3662 63.6453 12.4222 63.6453 13.88V15.064H58.7706V15.2667C58.7706 15.6862 58.8133 16.0311 58.8986 16.3013C58.991 16.5716 59.1226 16.7707 59.2933 16.8987C59.4639 17.0267 59.6381 17.112 59.8159 17.1547C59.9937 17.1973 60.2106 17.2187 60.4666 17.2187C60.7155 17.2187 60.9821 17.1867 61.2666 17.1227C61.5581 17.0587 61.8497 16.9591 62.1413 16.824C62.4399 16.6889 62.6888 16.5289 62.8879 16.344L63.5173 17.4213C63.2541 17.848 62.8666 18.2071 62.3546 18.4987C61.8497 18.7831 61.3626 18.9751 60.8932 19.0747C60.4239 19.1742 59.9759 19.224 59.5493 19.224ZM68.2461 19H64.8008V12.0987L64.1608 11.704V10.4987L66.4541 9.93333H67.3181L67.6274 12.472C67.919 10.7298 68.8541 9.85867 70.4327 9.85867C70.6105 9.85867 70.7954 9.89067 70.9874 9.95467L70.6248 13.752C70.4754 13.6169 70.1483 13.5493 69.6434 13.5493C68.9181 13.5493 68.4523 13.7413 68.2461 14.1253V19ZM71.832 19V12.0987L71.192 11.704V10.5627L73.4853 9.93333H75.2667V19H71.832ZM73.3787 8.952L71.6293 7.192V6.81867L73.3787 5.06933H73.784L75.608 6.81867V7.192L73.784 8.952H73.3787ZM83.8742 18.1147L83.7782 18.232C83.7142 18.3031 83.6005 18.3956 83.4369 18.5093C83.2805 18.616 83.0885 18.7262 82.8609 18.84C82.6405 18.9467 82.3418 19.0356 81.9649 19.1067C81.5951 19.1849 81.1969 19.224 80.7702 19.224C79.3267 19.224 78.2209 18.8009 77.4529 17.9547C76.692 17.1084 76.3116 15.9884 76.3116 14.5947C76.3116 13.8409 76.4289 13.1547 76.6636 12.536C76.8982 11.9173 77.2182 11.4053 77.6236 11C78.036 10.5876 78.516 10.2711 79.0636 10.0507C79.6183 9.82311 80.2156 9.70933 80.8556 9.70933C82.0929 9.70933 83.0529 10.0044 83.7356 10.5947C83.8849 10.744 83.9596 10.8187 83.9596 10.8187L83.7996 13.3253L82.2849 13.336L81.6769 11.704C81.62 11.6898 81.5418 11.6827 81.4422 11.6827C80.7951 11.6827 80.3471 11.9067 80.0982 12.3547C79.8565 12.7956 79.7356 13.5636 79.7356 14.6587C79.7356 15.1351 79.7747 15.544 79.8529 15.8853C79.9311 16.2196 80.02 16.472 80.1196 16.6427C80.2191 16.8062 80.3507 16.9342 80.5142 17.0267C80.6849 17.1191 80.8236 17.1724 80.9303 17.1867C81.0369 17.2009 81.1685 17.208 81.3249 17.208C81.6805 17.208 82.0431 17.1653 82.4129 17.08C82.7898 16.9947 83.0991 16.856 83.3409 16.664L83.8742 18.1147ZM85.0195 19V12.0987L84.3795 11.704V10.5627L86.6728 9.93333H88.4542V19H85.0195ZM86.5662 8.952L84.8168 7.192V6.81867L86.5662 5.06933H86.9715L88.7955 6.81867V7.192L86.9715 8.952H86.5662ZM94.2137 17.944C94.5266 17.944 94.7649 17.816 94.9284 17.56C95.0991 17.2969 95.1844 16.9378 95.1844 16.4827V13.112C95.1844 11.7253 94.8573 11.032 94.2031 11.032C93.8973 11.032 93.6591 11.1564 93.4884 11.4053C93.3177 11.6542 93.2324 12.0062 93.2324 12.4613V15.928C93.2324 17.272 93.5595 17.944 94.2137 17.944ZM94.1284 19.224C92.5 19.224 91.3089 18.8542 90.5551 18.1147C89.8013 17.3751 89.4244 16.1947 89.4244 14.5733C89.4244 12.9662 89.8049 11.7573 90.5658 10.9467C91.3266 10.1289 92.564 9.72 94.2778 9.72C95.9489 9.72 97.1542 10.1111 97.8938 10.8933C98.6404 11.6684 99.0138 12.8453 99.0138 14.424C99.0138 16.0596 98.6191 17.2684 97.8298 18.0507C97.0475 18.8329 95.8137 19.224 94.1284 19.224ZM100.304 12.024L100.944 4.728H103.749L102.16 12.024H100.304ZM108.137 19.224C107.469 19.224 106.793 19.1138 106.111 18.8933C105.428 18.6658 104.991 18.4453 104.799 18.232L105.076 16.5147C105.318 16.7493 105.72 16.952 106.281 17.1227C106.85 17.2933 107.43 17.3787 108.02 17.3787C108.447 17.3787 108.738 17.3253 108.895 17.2187C109.058 17.112 109.14 16.9627 109.14 16.7707C109.14 16.5858 108.998 16.4222 108.713 16.28C108.429 16.1307 107.967 15.96 107.327 15.768C105.67 15.2702 104.841 14.2391 104.841 12.6747C104.841 12.0347 105.026 11.4871 105.396 11.032C105.766 10.5698 106.239 10.2356 106.815 10.0293C107.391 9.82311 108.034 9.72 108.745 9.72C109.961 9.72 110.857 9.944 111.433 10.392C111.561 10.5129 111.625 10.5733 111.625 10.5733L111.156 12.0987C110.687 11.6364 110.04 11.4053 109.215 11.4053C108.539 11.4053 108.201 11.6044 108.201 12.0027C108.201 12.1164 108.226 12.2124 108.276 12.2907C108.326 12.3618 108.408 12.4258 108.521 12.4827C108.642 12.5324 108.76 12.5751 108.873 12.6107C108.987 12.6391 109.147 12.6818 109.353 12.7387C109.56 12.7884 109.737 12.8347 109.887 12.8773C110.719 13.1547 111.323 13.5458 111.7 14.0507C112.077 14.5556 112.265 15.1849 112.265 15.9387C112.265 18.1289 110.889 19.224 108.137 19.224Z" fill="black"/>
<path d="M119.104 19.198C118.546 19.198 118.055 19.088 117.63 18.868C117.204 18.6333 116.874 18.2373 116.64 17.68C116.42 17.1227 116.31 16.3673 116.31 15.414V15.15H116.662V15.414C116.662 16.294 116.764 16.9833 116.97 17.482C117.19 17.9807 117.483 18.3327 117.85 18.538C118.216 18.7433 118.634 18.846 119.104 18.846C119.881 18.846 120.526 18.626 121.04 18.186C121.553 17.7313 121.81 16.932 121.81 15.788C121.81 15.0253 121.678 14.446 121.414 14.05C121.164 13.6393 120.82 13.324 120.38 13.104C119.954 12.884 119.485 12.6787 118.972 12.488C118.444 12.2827 117.982 12.0553 117.586 11.806C117.204 11.542 116.904 11.2047 116.684 10.794C116.478 10.3833 116.376 9.83333 116.376 9.144C116.376 8.16133 116.588 7.37667 117.014 6.79C117.454 6.20333 118.18 5.91 119.192 5.91C120.072 5.91 120.768 6.152 121.282 6.636C121.795 7.12 122.052 7.802 122.052 8.682V9.562H121.7V8.77C121.7 7.978 121.48 7.362 121.04 6.922C120.6 6.482 119.984 6.262 119.192 6.262C118.282 6.262 117.644 6.54067 117.278 7.098C116.911 7.64067 116.728 8.32267 116.728 9.144C116.728 9.81867 116.838 10.3467 117.058 10.728C117.292 11.1093 117.593 11.4027 117.96 11.608C118.341 11.8133 118.744 12.004 119.17 12.18C119.874 12.4587 120.446 12.73 120.886 12.994C121.326 13.258 121.648 13.6027 121.854 14.028C122.059 14.4387 122.162 15.0253 122.162 15.788C122.162 16.624 122.022 17.2913 121.744 17.79C121.48 18.2887 121.113 18.648 120.644 18.868C120.189 19.088 119.676 19.198 119.104 19.198ZM126.973 19.154C126.342 19.154 125.844 19.0733 125.477 18.912C125.125 18.736 124.868 18.5087 124.707 18.23C124.546 17.9513 124.443 17.6433 124.399 17.306C124.355 16.954 124.333 16.6093 124.333 16.272V10.816C124.333 10.4787 124.355 10.1413 124.399 9.804C124.443 9.46667 124.546 9.15867 124.707 8.88C124.868 8.58667 125.125 8.35933 125.477 8.198C125.844 8.022 126.342 7.934 126.973 7.934C127.589 7.934 128.073 8.022 128.425 8.198C128.792 8.35933 129.056 8.58667 129.217 8.88C129.378 9.15867 129.481 9.46667 129.525 9.804C129.569 10.1413 129.591 10.4787 129.591 10.816V11.784H129.239V10.882C129.239 10.486 129.195 10.09 129.107 9.694C129.034 9.298 128.836 8.968 128.513 8.704C128.205 8.42533 127.692 8.286 126.973 8.286C126.254 8.286 125.734 8.42533 125.411 8.704C125.088 8.968 124.883 9.298 124.795 9.694C124.722 10.09 124.685 10.486 124.685 10.882V16.206C124.685 16.5873 124.722 16.9833 124.795 17.394C124.883 17.79 125.088 18.1273 125.411 18.406C125.734 18.67 126.254 18.802 126.973 18.802C127.692 18.802 128.205 18.67 128.513 18.406C128.836 18.1273 129.034 17.79 129.107 17.394C129.195 16.9833 129.239 16.5873 129.239 16.206V15.326H129.591V16.272C129.591 16.7267 129.547 17.174 129.459 17.614C129.371 18.054 129.144 18.4207 128.777 18.714C128.41 19.0073 127.809 19.154 126.973 19.154ZM132.115 19V8.11H132.423L132.467 9.21C132.628 8.87267 132.892 8.57933 133.259 8.33C133.64 8.066 134.176 7.934 134.865 7.934C135.173 7.934 135.444 7.956 135.679 8V8.352C135.444 8.308 135.173 8.286 134.865 8.286C134.058 8.286 133.457 8.49867 133.061 8.924C132.665 9.34933 132.467 9.85533 132.467 10.442V19H132.115ZM139.166 19.088C138.829 19.088 138.477 19.0293 138.11 18.912C137.758 18.7947 137.458 18.56 137.208 18.208C136.959 17.8413 136.834 17.284 136.834 16.536V15.788C136.834 15.3187 136.937 14.908 137.142 14.556C137.362 14.204 137.619 13.9107 137.912 13.676C138.22 13.4267 138.514 13.2287 138.792 13.082C139.086 12.9207 139.298 12.8033 139.43 12.73C140.017 12.4073 140.472 12.1287 140.794 11.894C141.132 11.6447 141.374 11.3953 141.52 11.146C141.667 10.882 141.74 10.5667 141.74 10.2V9.892C141.74 9.39333 141.63 9.034 141.41 8.814C141.205 8.594 140.941 8.45467 140.618 8.396C140.296 8.33733 139.966 8.308 139.628 8.308C138.983 8.308 138.499 8.418 138.176 8.638C137.868 8.858 137.663 9.15133 137.56 9.518C137.472 9.88467 137.428 10.2953 137.428 10.75V11.652H137.076V10.706C137.076 9.85533 137.245 9.188 137.582 8.704C137.92 8.20533 138.602 7.956 139.628 7.956C140.42 7.956 140.985 8.05867 141.322 8.264C141.674 8.46933 141.887 8.74067 141.96 9.078C142.048 9.40067 142.092 9.76 142.092 10.156V19H141.762V17.394C141.586 17.9073 141.271 18.318 140.816 18.626C140.376 18.934 139.826 19.088 139.166 19.088ZM139.232 18.736C139.878 18.736 140.376 18.5967 140.728 18.318C141.095 18.0393 141.352 17.658 141.498 17.174C141.66 16.69 141.74 16.1473 141.74 15.546V11.498C141.506 11.8207 141.183 12.1067 140.772 12.356C140.376 12.5907 139.966 12.8327 139.54 13.082C139.174 13.2873 138.807 13.5073 138.44 13.742C138.088 13.962 137.788 14.248 137.538 14.6C137.304 14.952 137.186 15.4067 137.186 15.964V16.536C137.186 17.2253 137.296 17.724 137.516 18.032C137.736 18.34 138.008 18.538 138.33 18.626C138.653 18.6993 138.954 18.736 139.232 18.736ZM144.92 21.552V8.11H145.228L145.272 9.21C145.345 8.91667 145.55 8.63067 145.888 8.352C146.24 8.07333 146.797 7.934 147.56 7.934C148.176 7.934 148.66 8.022 149.012 8.198C149.378 8.35933 149.642 8.58667 149.804 8.88C149.965 9.15867 150.068 9.46667 150.112 9.804C150.156 10.1413 150.178 10.4787 150.178 10.816V16.272C150.178 16.7267 150.134 17.174 150.046 17.614C149.958 18.054 149.73 18.4207 149.364 18.714C148.997 19.0073 148.396 19.154 147.56 19.154C146.826 19.154 146.284 19.0513 145.932 18.846C145.58 18.626 145.36 18.3987 145.272 18.164V21.552H144.92ZM147.56 18.802C148.132 18.802 148.572 18.7213 148.88 18.56C149.188 18.3987 149.408 18.1933 149.54 17.944C149.672 17.68 149.752 17.4013 149.782 17.108C149.811 16.8 149.826 16.4993 149.826 16.206V10.882C149.826 10.442 149.789 10.024 149.716 9.628C149.657 9.232 149.474 8.90933 149.166 8.66C148.858 8.41067 148.322 8.286 147.56 8.286C146.856 8.286 146.342 8.418 146.02 8.682C145.697 8.93133 145.492 9.26133 145.404 9.672C145.316 10.0827 145.272 10.53 145.272 11.014V16.206C145.272 16.4993 145.286 16.8 145.316 17.108C145.345 17.4013 145.426 17.68 145.558 17.944C145.69 18.1933 145.91 18.3987 146.218 18.56C146.54 18.7213 146.988 18.802 147.56 18.802ZM155 19.132C154.238 19.132 153.614 18.9487 153.13 18.582C152.646 18.2153 152.404 17.6287 152.404 16.822V15.348H152.756V16.822C152.756 17.4673 152.962 17.9587 153.372 18.296C153.798 18.6187 154.34 18.78 155 18.78C155.69 18.78 156.24 18.6333 156.65 18.34C157.076 18.0467 157.288 17.5627 157.288 16.888V16.052C157.288 15.4947 157.171 15.062 156.936 14.754C156.702 14.4313 156.401 14.1747 156.034 13.984C155.682 13.7787 155.301 13.588 154.89 13.412C154.436 13.2067 154.018 13.0013 153.636 12.796C153.255 12.5907 152.947 12.3413 152.712 12.048C152.492 11.74 152.382 11.344 152.382 10.86V10.112C152.382 9.496 152.617 8.98267 153.086 8.572C153.556 8.16133 154.208 7.956 155.044 7.956C155.807 7.956 156.43 8.132 156.914 8.484C157.413 8.82133 157.662 9.386 157.662 10.178V11.608H157.31V10.31C157.31 9.606 157.112 9.1 156.716 8.792C156.335 8.46933 155.778 8.308 155.044 8.308C154.311 8.308 153.739 8.49133 153.328 8.858C152.932 9.22467 152.734 9.70867 152.734 10.31V10.706C152.734 11.19 152.859 11.5787 153.108 11.872C153.358 12.1653 153.658 12.4073 154.01 12.598C154.362 12.774 154.692 12.9353 155 13.082C155.44 13.2727 155.858 13.4853 156.254 13.72C156.665 13.94 156.995 14.2333 157.244 14.6C157.508 14.952 157.64 15.436 157.64 16.052V16.888C157.64 17.46 157.516 17.9073 157.266 18.23C157.017 18.5527 156.694 18.7873 156.298 18.934C155.902 19.066 155.47 19.132 155 19.132Z" fill="#0F0F0F"/>
</svg>
